<svg width="31" height="13" viewBox="0 0 31 13" fill="none" xmlns="http://www.w3.org/2000/svg">
<path d="M0.609375 9.72727V8.30682L5.63778 0.363636H6.7571V2.45455H6.04688L2.45028 8.14773V8.23864H9.34233V9.72727H0.609375ZM6.12642 12V9.29545L6.13778 8.64773V0.363636H7.80256V12H6.12642ZM15.3736 12.1932C14.4759 12.1894 13.7088 11.9527 13.0724 11.483C12.4361 11.0133 11.9493 10.3295 11.6122 9.43182C11.2751 8.53409 11.1065 7.45265 11.1065 6.1875C11.1065 4.92614 11.2751 3.84848 11.6122 2.95455C11.9531 2.06061 12.4418 1.37879 13.0781 0.909091C13.7183 0.439394 14.4834 0.204545 15.3736 0.204545C16.2637 0.204545 17.027 0.441287 17.6634 0.914772C18.2997 1.38447 18.7865 2.06629 19.1236 2.96023C19.4645 3.85038 19.6349 4.92614 19.6349 6.1875C19.6349 7.45644 19.4664 8.53977 19.1293 9.4375C18.7921 10.3314 18.3054 11.0152 17.669 11.4886C17.0327 11.9583 16.2675 12.1932 15.3736 12.1932ZM15.3736 10.6761C16.1615 10.6761 16.777 10.2917 17.2202 9.52273C17.6671 8.75379 17.8906 7.64205 17.8906 6.1875C17.8906 5.22159 17.7884 4.4053 17.5838 3.73864C17.383 3.06818 17.0933 2.56061 16.7145 2.21591C16.3395 1.86742 15.8925 1.69318 15.3736 1.69318C14.5895 1.69318 13.974 2.07954 13.527 2.85227C13.08 3.625 12.8546 4.73674 12.8509 6.1875C12.8509 7.1572 12.9512 7.97727 13.152 8.64773C13.3565 9.31439 13.6463 9.82008 14.0213 10.1648C14.3963 10.5057 14.8471 10.6761 15.3736 10.6761ZM21.4062 9.72727V8.30682L26.4347 0.363636H27.554V2.45455H26.8438L23.2472 8.14773V8.23864H30.1392V9.72727H21.4062ZM26.9233 12V9.29545L26.9347 8.64773V0.363636H28.5994V12H26.9233Z" fill="url(#paint0_linear_16172_99)"/>
<defs>
<linearGradient id="paint0_linear_16172_99" x1="15" y1="-3" x2="15" y2="16" gradientUnits="userSpaceOnUse">
<stop stop-color="#C4C4C4"/>
<stop offset="0.854167" stop-color="#C4C4C4" stop-opacity="0"/>
</linearGradient>
</defs>
</svg>
